<?xml version="1.0" encoding="UTF-8" standalone="no"?>
<svg width="62px" height="60px" viewBox="0 0 62 60" version="1.1" xmlns="http://www.w3.org/2000/svg" xmlns:xlink="http://www.w3.org/1999/xlink" xmlns:sketch="http://www.bohemiancoding.com/sketch/ns">
    <!-- Generator: Sketch 3.5.2 (25235) - http://www.bohemiancoding.com/sketch -->
    <title>people</title>
    <desc>Created with Sketch.</desc>
    <defs></defs>
    <g id="Page-1" stroke="none" stroke-width="1" fill="none" fill-rule="evenodd" sketch:type="MSPage">
        <g id="Logo-Cover-Copy" sketch:type="MSArtboardGroup" transform="translate(-1583.000000, -460.000000)">
            <g id="people" sketch:type="MSLayerGroup" transform="translate(1583.000000, 460.000000)">
                <g id="f145" sketch:type="MSShapeGroup">
                    <g id="Page-1">
                        <g id="f145">
                            <path d="M16.0344828,15.9292035 C15.4444138,15.9292035 14.9655172,15.4545133 14.9655172,14.8672566 C14.9655172,9.01168142 11.129,4.24778761 6.4137931,4.24778761 C5.82372414,4.24778761 5.34482759,3.77309735 5.34482759,3.18584071 C5.34482759,2.59858407 5.82372414,2.12389381 6.4137931,2.12389381 C12.308069,2.12389381 17.1034483,7.84035398 17.1034483,14.8672566 C17.1034483,15.4545133 16.6245517,15.9292035 16.0344828,15.9292035" id="Fill-49" fill="#5DA892"></path>
                            <path d="M45.9655172,13.9561062 C45.3754483,13.9561062 44.8965517,13.480354 44.8965517,12.8930973 C44.8965517,6.99823009 48.5834138,3.33557522 54.5172414,3.33557522 C55.1083793,3.33557522 55.5862069,3.81132743 55.5862069,4.39858407 C55.5862069,4.98477876 55.1083793,5.45946903 54.5172414,5.45946903 C49.7624828,5.45946903 47.0344828,8.16955752 47.0344828,12.8930973 C47.0344828,13.480354 46.5555862,13.9561062 45.9655172,13.9561062" id="Fill-50" fill="#5DA892"></path>
                            <path d="M31.4190345,59.6145133 C43.4416897,59.780177 50.1473103,54.9621239 53.8758621,49.8573451 C57.7273448,44.5826549 58.9684138,37.8753982 57.7733103,31.4612389 C53.4525517,8.2619469 31.4190345,8.45734513 31.4190345,8.45734513 C31.4190345,8.45734513 9.38658621,8.2619469 5.06475862,31.4612389 C3.87072414,37.8753982 5.1117931,44.5826549 8.96327586,49.8573451 C12.6907586,54.9621239 19.3974483,59.780177 31.4190345,59.6145133" id="Fill-89" fill="#81CCB8"></path>
                            <path d="M4.80927586,33.199646 C4.32503448,32.7440708 3.75634483,32.4700885 3.14168966,32.4700885 C1.40675862,32.4700885 0,34.5727434 0,37.1681416 C0,39.7624779 1.40675862,41.8661947 3.14168966,41.8661947 C3.87606897,41.8661947 4.54310345,41.4732743 5.07758621,40.8424779 C4.59334483,38.3447788 4.50889655,35.7621239 4.80927586,33.199646" id="Fill-227" fill="#13A085"></path>
                            <path d="M61.8107931,29.1355752 C61.2089655,26.6113274 59.3521724,24.8888496 57.6632069,25.2892035 C57.1383448,25.4134513 56.7032759,25.7458407 56.3547931,26.1971681 C56.9298966,27.8060177 57.4173448,29.5465487 57.7733103,31.4612389 C57.939,32.3500885 58.0533793,33.2442478 58.125,34.139469 C58.6808621,34.4410619 59.270931,34.5663717 59.8438966,34.4304425 C61.5317931,34.0300885 62.4126207,31.659823 61.8107931,29.1355752" id="Fill-228" fill="#13A085"></path>
                            <path d="M31.5344828,29.8842478 C27.1068276,29.8842478 23.5172414,27.0318584 23.5172414,23.5125664 C23.5172414,19.9932743 27.1068276,17.140885 31.5344828,17.140885 C35.9621379,17.140885 39.5517241,19.9932743 39.5517241,23.5125664 C39.5517241,27.0318584 35.9621379,29.8842478 31.5344828,29.8842478" id="Fill-311" fill="#FFFFFF"></path>
                            <path d="M31.5344828,26.6984071 C28.8781034,26.6984071 26.7241379,25.2722124 26.7241379,23.5125664 C26.7241379,21.7529204 28.8781034,20.3267257 31.5344828,20.3267257 C34.1908621,20.3267257 36.3448276,21.7529204 36.3448276,23.5125664 C36.3448276,25.2722124 34.1908621,26.6984071 31.5344828,26.6984071" id="Fill-312" fill="#5DA892"></path>
                            <path d="M17.637931,36.2559292 C13.2102759,36.2559292 9.62068966,33.4035398 9.62068966,29.8842478 C9.62068966,26.3649558 13.2102759,23.5125664 17.637931,23.5125664 C22.0655862,23.5125664 25.6551724,26.3649558 25.6551724,29.8842478 C25.6551724,33.4035398 22.0655862,36.2559292 17.637931,36.2559292" id="Fill-313" fill="#FFFFFF"></path>
                            <path d="M17.637931,33.0700885 C14.9815517,33.0700885 12.8275862,31.6438938 12.8275862,29.8842478 C12.8275862,28.1246018 14.9815517,26.6984071 17.637931,26.6984071 C20.2943103,26.6984071 22.4482759,28.1246018 22.4482759,29.8842478 C22.4482759,31.6438938 20.2943103,33.0700885 17.637931,33.0700885" id="Fill-314" fill="#5DA892"></path>
                            <path d="M45.4310345,36.2559292 C41.0033793,36.2559292 37.4137931,33.4035398 37.4137931,29.8842478 C37.4137931,26.3649558 41.0033793,23.5125664 45.4310345,23.5125664 C49.8586897,23.5125664 53.4482759,26.3649558 53.4482759,29.8842478 C53.4482759,33.4035398 49.8586897,36.2559292 45.4310345,36.2559292" id="Fill-315" fill="#FFFFFF"></path>
                            <path d="M45.4310345,33.0700885 C42.7746552,33.0700885 40.6206897,31.6438938 40.6206897,29.8842478 C40.6206897,28.1246018 42.7746552,26.6984071 45.4310345,26.6984071 C48.0874138,26.6984071 50.2413793,28.1246018 50.2413793,29.8842478 C50.2413793,31.6438938 48.0874138,33.0700885 45.4310345,33.0700885" id="Fill-316" fill="#5DA892"></path>
                            <path d="M48.7448276,42.8410619 L44.4689655,39.6552212 C43.9964828,39.3037168 43.3273103,39.3982301 42.9724138,39.8676106 C42.6185862,40.3359292 42.7137241,41.0017699 43.1862069,41.3532743 L44.6934483,42.4768142 C43.3315862,44.1769912 38.9755517,49.039646 33.0438621,49.9221239 C29.2928621,50.4828319 25.5194138,49.3327434 21.8282759,46.540885 L23.0896552,45.6010619 C23.5621379,45.2495575 23.6572759,44.5837168 23.3034483,44.1153982 C22.9496207,43.6449558 22.2815172,43.5525664 21.8068966,43.9030088 L17.5310345,47.0888496 C17.0585517,47.440354 16.9634138,48.1061947 17.3172414,48.5745133 C17.5278276,48.8538053 17.8485172,49.000354 18.1734828,49.000354 C18.3968966,49.000354 18.6213793,48.9302655 18.8137931,48.7869027 L20.0719655,47.8502655 C20.1083103,47.8884956 20.1307586,47.9352212 20.1735172,47.9692035 C23.7481379,50.7727434 27.435,52.1861947 31.1603448,52.1861947 C31.8968621,52.1861947 32.6355172,52.1309735 33.3752414,52.019469 C40.1642414,51.0031858 44.9157931,45.6477876 46.407,43.7532743 L47.462069,44.539115 C47.6544828,44.6824779 47.8800345,44.7515044 48.1023793,44.7515044 C48.4273448,44.7515044 48.7491034,44.6060177 48.9586207,44.3267257 C49.3135172,43.8584071 49.2173103,43.1925664 48.7448276,42.8410619" id="Fill-337" fill="#5DA892"></path>
                            <path d="M6.4137931,3.18584071 C6.4137931,4.94548673 4.97817241,6.37168142 3.20689655,6.37168142 C1.43562069,6.37168142 0,4.94548673 0,3.18584071 C0,1.42619469 1.43562069,0 3.20689655,0 C4.97817241,0 6.4137931,1.42619469 6.4137931,3.18584071" id="Fill-383" fill="#13A085"></path>
                            <path d="M54.5172414,4.39752212 C54.5172414,6.15716814 55.9528621,7.58336283 57.7241379,7.58336283 C59.4954138,7.58336283 60.9310345,6.15716814 60.9310345,4.39752212 C60.9310345,2.63787611 59.4954138,1.21168142 57.7241379,1.21168142 C55.9528621,1.21168142 54.5172414,2.63787611 54.5172414,4.39752212" id="Fill-384" fill="#13A085"></path>
                        </g>
                    </g>
                </g>
            </g>
        </g>
    </g>
</svg>