<?xml version="1.0" encoding="UTF-8" standalone="no"?>
<svg width="288px" height="141px" viewBox="0 0 288 141" version="1.1" xmlns="http://www.w3.org/2000/svg" xmlns:xlink="http://www.w3.org/1999/xlink" xmlns:sketch="http://www.bohemiancoding.com/sketch/ns">
    <!-- Generator: Sketch 3.5.2 (25235) - http://www.bohemiancoding.com/sketch -->
    <title>LOGO</title>
    <desc>Created with Sketch.</desc>
    <defs></defs>
    <g id="Page-1" stroke="none" stroke-width="1" fill="none" fill-rule="evenodd" sketch:type="MSPage">
        <g id="Logo-Cover" sketch:type="MSArtboardGroup" transform="translate(-816.000000, -469.000000)">
            <g id="LOGO" sketch:type="MSLayerGroup" transform="translate(816.000000, 469.000000)">
                <path d="M66.1169502,141 C63.316748,139.915544 62.3929646,137.822835 62.4075206,134.910822 C62.4800404,120.536338 62.4374123,106.161077 62.4433906,91.7863346 C62.4444303,88.911386 63.7458888,87.0190313 66.1616578,86.4353327 C66.8226542,86.275671 67.5343365,86.285261 68.2226253,86.2844835 C75.4954051,86.2746342 82.7684448,86.2782629 90.0412245,86.2782629 L91.6010513,86.2782629 L91.6010513,84.6557261 C91.6010513,72.3529577 91.6447191,60.0499301 91.5688202,47.747421 C91.5508852,44.8242629 92.394091,42.6286544 95.2288635,41.4705882 L97.5682137,41.4705882 C100.571419,42.4980221 101.630365,44.631943 101.624387,47.7365349 C101.569022,76.7179963 101.571622,105.699717 101.621268,134.680919 C101.626466,137.665246 100.747651,139.879776 97.8281415,141 L95.4887913,141 C92.4923437,139.915803 91.5467264,137.704903 91.5664809,134.644114 C91.6486181,122.032908 91.6010513,109.420925 91.6010513,96.8092004 L91.6010513,95.2537941 L72.3793906,95.2537941 L72.3793906,96.8307132 C72.3793906,109.399412 72.320387,121.968369 72.4209791,134.536031 C72.4461921,137.665246 71.4917372,139.88807 68.4563004,141 L66.1169502,141 Z" id="Fill-1" fill="#FFFFFF" sketch:type="MSShapeGroup"></path>
                <path d="M68.4563004,41.4705882 C71.4945964,42.5775938 72.5324881,44.7929007 72.4176,47.9293732 C72.2632029,52.1557445 72.3926469,56.3917059 72.3734123,60.623261 C72.3622354,63.0702849 71.0121704,64.8415974 68.713109,65.5183456 C66.7296,66.1023033 64.2108996,65.1547004 63.140517,63.2118033 C62.6877227,62.3901673 62.4862787,61.3378511 62.470943,60.3855827 C62.4018022,56.1117794 62.5302065,51.8335699 62.4096,47.5620993 C62.3272029,44.6449026 63.3047913,42.5483051 66.1169502,41.4705882 L68.4563004,41.4705882 Z" id="Fill-3" fill="#FFFFFF" sketch:type="MSShapeGroup"></path>
                <path d="M24.2667292,41.4705882 C26.1836968,41.9456857 28.1687653,42.2401268 30.0056751,42.9280202 C36.5043899,45.3615662 39.941935,50.2644265 40.8664982,56.9922518 C41.0806787,58.55025 41.148,60.1940404 40.8945704,61.734932 C40.5015596,64.1233787 38.2625415,65.6318713 35.8540505,65.4608051 C33.3873357,65.2853327 31.6408809,63.5580827 31.2190181,61.1639338 C30.8870903,59.2798732 30.5988303,57.2978382 29.7761588,55.6084301 C27.8815451,51.7179706 23.0739206,49.668546 18.9096173,50.6521765 C14.4645921,51.7021599 11.1533718,55.376454 11.0551191,59.7845184 C10.9573863,64.1775496 10.9750614,68.5913162 11.2976318,72.9698327 C11.5562599,76.4774669 13.5317112,79.1212169 16.6227726,80.9275202 C21.2461083,83.6290699 25.768852,86.5068695 30.4439134,89.1138143 C38.2214729,93.4511195 42.044231,100.120108 42.3309314,108.8393 C42.4881877,113.622154 42.5136606,118.433002 42.1879711,123.203156 C41.5293141,132.853362 35.2161877,139.388868 25.6446065,140.73407 C25.2669314,140.787204 24.8991336,140.909801 24.526657,141 L19.0681733,141 C18.14387,140.825564 17.2198267,140.648796 16.2950036,140.476952 C6.23215884,138.607406 0.0596534296,131.255967 0.000129963899,121.068717 C-0.0131263538,118.793796 1.15238989,117.093761 3.19776173,116.40509 C6.61841155,115.253244 9.72636823,117.347768 9.96862094,120.968151 C10.5113502,129.072281 17.4155523,133.858765 25.0808231,131.444399 C29.5728953,130.029474 32.2680866,126.109467 32.367639,120.658676 C32.4365199,116.902478 32.4326209,113.142392 32.3341083,109.386971 C32.2984982,108.028809 32.0375307,106.635397 31.6302238,105.335553 C30.4322166,101.510928 27.5394801,99.1403658 24.238917,97.1795846 C20.0418628,94.6861654 15.83987,92.2015588 11.6277401,89.734318 C6.14846209,86.5252721 2.91262094,81.7131287 1.61948014,75.5980313 C0.510368231,70.3527794 0.850613718,65.0152555 1.05465704,59.7186838 C1.37488809,51.3942408 5.76246931,45.8708768 13.4451552,42.923614 C15.3161155,42.2056544 17.3625271,41.9425754 19.3281011,41.4705882 L24.2667292,41.4705882 Z" id="Fill-5" fill="#FF0B8E" sketch:type="MSShapeGroup"></path>
                <path d="M160.208968,41.4705882 C160.996809,41.9752335 161.905516,42.3611691 162.545978,43.010443 C163.713054,44.1928732 164.141155,45.6865919 163.521747,47.3003162 C162.875307,48.9837629 161.692375,50.1869283 159.822715,50.3188566 C157.754729,50.4645221 155.672448,50.4191636 153.596144,50.436011 C151.695292,50.4515625 149.79444,50.4393805 147.802874,50.4393805 L147.802874,131.956561 C148.230715,131.978333 148.684029,132.02084 149.137083,132.021618 C152.340953,132.027838 155.545343,131.994921 158.748433,132.034836 C161.692895,132.071642 163.552939,133.649079 163.777776,136.199779 C163.959986,138.263719 162.776014,139.85593 160.208968,141 L125.378643,141 C123.729661,140.306923 122.349704,139.354914 121.992303,137.443897 C121.433199,134.455682 123.467394,132.082009 126.699076,132.034318 C129.81535,131.988441 132.932924,132.024728 136.049978,132.024728 L137.582253,132.024728 L137.582253,50.4393805 C136.039061,50.4393805 134.536419,50.4391213 133.034036,50.4393805 C130.869357,50.4398989 128.703379,50.4899228 126.54052,50.4277169 C124.206108,50.3605864 122.32657,48.7917022 121.980606,46.748239 C121.612809,44.5769945 122.737256,42.6887868 124.960679,41.7315938 C125.109877,41.6673143 125.239841,41.5587132 125.378643,41.4705882 L160.208968,41.4705882 Z" id="Fill-7" fill="#FF0B8E" sketch:type="MSShapeGroup"></path>
                <path d="M186.461675,141 C186.319235,140.917059 186.185632,140.809235 186.033054,140.754546 C183.607928,139.886774 182.469704,138.362211 182.453588,135.811511 C182.427856,131.797158 182.445791,127.782287 182.445791,123.767675 C182.445791,98.2554871 182.466585,72.7432996 182.416159,47.2313713 C182.4107,44.4712445 183.222195,42.4529228 185.941819,41.4705882 L224.930989,41.4705882 C227.776419,42.7613603 228.877213,44.5233419 228.339422,46.9265625 C227.946152,48.6841379 226.600505,50.0039393 224.823899,50.303046 C224.188375,50.4103511 223.532318,50.4334191 222.885617,50.4339375 C213.313776,50.4419724 203.741935,50.4393805 194.170094,50.4393805 L192.524751,50.4393805 L192.524751,84.7596618 L193.952794,84.7596618 C201.055841,84.759921 208.159148,84.7474798 215.262195,84.7658824 C218.403942,84.7739173 220.380693,86.9259816 220.03239,89.8843897 C219.818209,91.702875 218.370931,93.2722776 216.551957,93.5840846 C215.874065,93.7002022 215.174339,93.7294908 214.484751,93.7305276 C207.68478,93.740636 200.884809,93.7367482 194.084838,93.7367482 L192.431437,93.7367482 L192.431437,95.3997188 C192.431437,108.442737 192.357617,121.486533 192.484202,134.528256 C192.515134,137.695313 191.502975,139.838305 188.541097,141 L186.461675,141 Z" id="Fill-9" fill="#FF0B8E" sketch:type="MSShapeGroup"></path>
                <path d="M284.454455,41.4705882 C285.036693,41.8202371 285.669097,42.1084577 286.191552,42.5311985 C287.628953,43.6944485 288.243422,45.2340441 287.737863,47.0232408 C287.216968,48.8676452 285.974513,50.2001471 283.995162,50.3082298 C280.930094,50.4754081 277.852029,50.4137206 274.779682,50.4370478 C273.017112,50.4502665 271.254542,50.4393805 269.357329,50.4393805 L269.357329,52.2373897 C269.357329,79.7031011 269.336014,107.169072 269.38748,134.635042 C269.393199,137.678465 268.497227,139.92332 265.479726,141 L263.140375,141 C260.133011,139.661018 259.296823,137.271276 259.304881,134.117178 C259.374022,106.879814 259.34465,79.641932 259.34465,52.4043088 L259.34465,50.4393805 L257.836289,50.4393805 C254.070195,50.4393805 250.304101,50.4525993 246.538007,50.4284945 C245.765502,50.4235699 244.951668,50.4093143 244.229588,50.1755239 C242.433487,49.5936397 241.329834,48.287057 241.081863,46.4273603 C240.835451,44.5782904 241.717386,43.1848787 243.233805,42.1709228 C243.616159,41.9153603 244.027625,41.7028235 244.425574,41.4705882 L284.454455,41.4705882 Z" id="Fill-11" fill="#FF0B8E" sketch:type="MSShapeGroup"></path>
                <path d="M55.3667264,2.11888787 L55.3667264,9.07868934 L53.3652823,9.07868934 L53.3652823,2.11888787 L51.4808058,2.11888787 L51.4808058,0.434145221 L57.2514628,0.434145221 L57.2514628,2.11888787 L55.3667264,2.11888787 Z" id="Fill-13" fill="#FFFFFF" sketch:type="MSShapeGroup"></path>
                <path d="M78.5003004,3.725925 L81.9576,3.725925 L81.9576,0.434197059 L83.959044,0.434197059 L83.959044,9.07848199 L81.9576,9.07848199 L81.9576,5.41092684 L78.5003004,5.41092684 L78.5003004,9.07848199 L76.4988563,9.07848199 L76.4988563,0.434197059 L78.5003004,0.434197059 L78.5003004,3.725925 Z" id="Fill-15" fill="#FFFFFF" sketch:type="MSShapeGroup"></path>
                <path d="M106.09161,9.07868934 L104.089906,9.07868934 L104.089906,0.434145221 L106.09161,0.434145221 L106.09161,9.07868934 Z" id="Fill-17" fill="#FFFFFF" sketch:type="MSShapeGroup"></path>
                <path d="M126.22268,9.07858566 L126.22268,0.434041544 L127.964196,0.434041544 L132.669409,6.00691103 L132.669409,0.434041544 L134.670853,0.434041544 L134.670853,9.07858566 L132.929337,9.07858566 L128.224124,3.47953787 L128.224124,9.07858566 L126.22268,9.07858566 Z" id="Fill-19" fill="#FFFFFF" sketch:type="MSShapeGroup"></path>
                <path d="M156.764222,4.03700625 L159.727399,0.434248897 L162.17124,0.434248897 L158.661955,4.52946949 L162.444165,9.07853382 L159.870619,9.07853382 L156.764222,5.24224522 L156.764222,9.07853382 L154.762778,9.07853382 L154.762778,0.434248897 L156.764222,0.434248897 L156.764222,4.03700625 Z" id="Fill-20" fill="#FFFFFF" sketch:type="MSShapeGroup"></path>
                <path d="M183.666749,7.39384301 L184.199601,7.39384301 C184.615486,7.39384301 185.525233,7.35496434 186.175053,6.81040368 C186.643183,6.42161691 187.020078,5.68292206 187.020078,4.72391471 C187.020078,3.79082647 186.643183,3.19468676 186.305017,2.85747904 C185.655197,2.2095011 184.810432,2.11878419 184.199601,2.11878419 L183.666749,2.11878419 L183.666749,7.39384301 Z M184.407804,0.434041544 C185.551486,0.434041544 186.75989,0.602515809 187.825854,1.62632096 C188.592641,2.365275 189.073768,3.37612059 189.073768,4.72391471 C189.073768,6.08466838 188.605638,7.06985404 187.890836,7.78262978 C186.694908,8.98786875 185.200323,9.07858566 184.472786,9.07858566 L181.665305,9.07858566 L181.665305,0.434041544 L184.407804,0.434041544 Z" id="Fill-21" fill="#FFFFFF" sketch:type="MSShapeGroup"></path>
                <path d="M211.180003,2.81875588 C210.803108,3.18162353 210.413216,3.8169011 210.413216,4.77590846 C210.413216,5.56644154 210.673144,6.20145993 211.205996,6.71984228 C211.76484,7.25118419 212.388667,7.43261801 213.064479,7.43261801 C213.948234,7.43261801 214.572321,7.10862904 214.987945,6.69392316 C215.325851,6.36993419 215.741996,5.76083493 215.741996,4.76268971 C215.741996,3.86848015 215.377837,3.20754265 214.987945,2.81875588 C214.559064,2.40379081 213.870516,2.07980184 213.077476,2.07980184 C212.323425,2.07980184 211.647873,2.35221176 211.180003,2.81875588 M216.443801,1.49662169 C217.262573,2.28741397 217.795425,3.42785515 217.795425,4.76268971 C217.795425,5.91609044 217.379801,7.09566949 216.443801,8.0028386 C215.637765,8.78041213 214.546068,9.27287537 213.090472,9.27287537 C211.465923,9.27287537 210.36123,8.62489743 209.711411,8.0028386 C208.879382,7.22526507 208.359526,6.05890478 208.359526,4.78886801 C208.359526,3.54449118 208.918371,2.28741397 209.698155,1.50958125 C210.283252,0.926401103 211.361692,0.239544485 213.090472,0.239544485 C214.442357,0.239544485 215.572783,0.654250368 216.443801,1.49662169" id="Fill-22" fill="#FFFFFF" sketch:type="MSShapeGroup"></path>
            </g>
        </g>
    </g>
</svg>